<?xml version="1.0" encoding="utf-8"?>
<svg version="1.1" xmlns:xlink="http://www.w3.org/1999/xlink" width="30px" height="30px" xmlns="http://www.w3.org/2000/svg">
  <defs>
    <pattern id="BGPattern" patternUnits="userSpaceOnUse" alignment="0 0" imageRepeat="None" />
    <mask fill="white" id="Clip198">
      <path d="M 0 15  C 0 6.6  6.6 0  15 0  C 23.400000000000002 0  30 6.6  30 15  C 30 23.400000000000002  23.400000000000002 30  15 30  C 6.6 30  0 23.400000000000002  0 15  Z " fill-rule="evenodd" />
    </mask>
  </defs>
  <g>
    <path d="M 0 15  C 0 6.6  6.6 0  15 0  C 23.400000000000002 0  30 6.6  30 15  C 30 23.400000000000002  23.400000000000002 30  15 30  C 6.6 30  0 23.400000000000002  0 15  Z " fill-rule="nonzero" fill="rgba(255, 255, 255, 1)" stroke="none" class="fill" />
    <path d="M 0 15  C 0 6.6  6.6 0  15 0  C 23.400000000000002 0  30 6.6  30 15  C 30 23.400000000000002  23.400000000000002 30  15 30  C 6.6 30  0 23.400000000000002  0 15  Z " stroke-width="2" stroke-dasharray="0" stroke="rgba(140, 140, 140, 1)" fill="none" class="stroke" mask="url(#Clip198)" />
  </g>
</svg>