<?xml version="1.0" encoding="utf-8"?>
<svg version="1.1" xmlns:xlink="http://www.w3.org/1999/xlink" width="10px" height="10px" xmlns="http://www.w3.org/2000/svg">
  <defs>
    <pattern id="BGPattern" patternUnits="userSpaceOnUse" alignment="0 0" imageRepeat="None" />
    <mask fill="white" id="Clip242">
      <path d="M 9.610000000000001 5.244  C 9.606145766473709 7.666931780216187  7.642931780216188 9.630145766473708  5.220000000000001 9.633999999999999  C 2.795927224461783 9.63289639282845  0.8311036071715492 7.668072775538215  0.8299999999999992 5.243999999999998  C 0.8311036071715492 2.8199272244617823  2.795927224461783 0.8551036071715483  5.220000000000001 0.8539999999999983  C 7.6440727755382145 0.8551036071715492  9.60889639282845 2.8199272244617832  9.610000000000001 5.244  Z M 6.976000000000001 5.244  C 6.976000000000001 4.277999999999999  6.186000000000002 3.4879999999999995  5.220000000000001 3.4879999999999995  C 4.254000000000001 3.4879999999999995  3.463000000000001 4.277999999999999  3.463000000000001 5.244  C 3.463000000000001 6.210000000000001  4.253 7  5.220000000000001 7  C 6.185000000000002 7  6.976000000000001 6.210000000000001  6.976000000000001 5.244  Z " fill-rule="evenodd" />
    </mask>
  </defs>
  <g transform="matrix(1 0 0 1 -122 -40 )">
    <path d="M 9.610000000000001 5.244  C 9.606145766473709 7.666931780216187  7.642931780216188 9.630145766473708  5.220000000000001 9.633999999999999  C 2.795927224461783 9.63289639282845  0.8311036071715492 7.668072775538215  0.8299999999999992 5.243999999999998  C 0.8311036071715492 2.8199272244617823  2.795927224461783 0.8551036071715483  5.220000000000001 0.8539999999999983  C 7.6440727755382145 0.8551036071715492  9.60889639282845 2.8199272244617832  9.610000000000001 5.244  Z M 6.976000000000001 5.244  C 6.976000000000001 4.277999999999999  6.186000000000002 3.4879999999999995  5.220000000000001 3.4879999999999995  C 4.254000000000001 3.4879999999999995  3.463000000000001 4.277999999999999  3.463000000000001 5.244  C 3.463000000000001 6.210000000000001  4.253 7  5.220000000000001 7  C 6.185000000000002 7  6.976000000000001 6.210000000000001  6.976000000000001 5.244  Z " fill-rule="nonzero" fill="rgba(205, 68, 39, 1)" stroke="none" transform="matrix(1 0 0 1 122 40 )" class="fill" />
    <path d="M 9.610000000000001 5.244  C 9.606145766473709 7.666931780216187  7.642931780216188 9.630145766473708  5.220000000000001 9.633999999999999  C 2.795927224461783 9.63289639282845  0.8311036071715492 7.668072775538215  0.8299999999999992 5.243999999999998  C 0.8311036071715492 2.8199272244617823  2.795927224461783 0.8551036071715483  5.220000000000001 0.8539999999999983  C 7.6440727755382145 0.8551036071715492  9.60889639282845 2.8199272244617832  9.610000000000001 5.244  Z " stroke-width="0" stroke-dasharray="0" stroke="rgba(255, 255, 255, 0)" fill="none" transform="matrix(1 0 0 1 122 40 )" class="stroke" mask="url(#Clip242)" />
    <path d="M 6.976000000000001 5.244  C 6.976000000000001 4.277999999999999  6.186000000000002 3.4879999999999995  5.220000000000001 3.4879999999999995  C 4.254000000000001 3.4879999999999995  3.463000000000001 4.277999999999999  3.463000000000001 5.244  C 3.463000000000001 6.210000000000001  4.253 7  5.220000000000001 7  C 6.185000000000002 7  6.976000000000001 6.210000000000001  6.976000000000001 5.244  Z " stroke-width="0" stroke-dasharray="0" stroke="rgba(255, 255, 255, 0)" fill="none" transform="matrix(1 0 0 1 122 40 )" class="stroke" mask="url(#Clip242)" />
  </g>
</svg>