<?xml version="1.0" encoding="utf-8"?>
<svg version="1.1" xmlns:xlink="http://www.w3.org/1999/xlink" width="30px" height="30px" xmlns="http://www.w3.org/2000/svg">
  <defs>
    <pattern id="BGPattern" patternUnits="userSpaceOnUse" alignment="0 0" imageRepeat="None" />
    <mask fill="white" id="Clip255">
      <path d="M 13.191818181818183 3.5495454545454543  C 13.191818181818183 2.1954545454545458  12.091363636363639 1.095  10.737272727272725 1.095  L 3.545454545454545 1.095  C 2.1913636363636364 1.095  1.0909090909090906 2.1954545454545458  1.0909090909090906 3.5495454545454543  L 1.0909090909090906 10.741363636363637  C 1.0909090909090906 12.095454545454547  2.1913636363636364 13.195909090909092  3.545454545454545 13.195909090909092  L 10.737272727272728 13.195909090909092  C 12.091363636363639 13.195909090909092  13.191818181818183 12.095454545454547  13.191818181818183 10.741363636363637  L 13.191818181818183 3.5495454545454543  Z M 11.555454545454548 3.5495454545454543  L 11.555454545454545 10.741363636363637  C 11.555454545454545 11.191363636363636  11.187272727272727 11.559545454545457  10.737272727272725 11.559545454545457  L 3.545454545454545 11.559545454545457  C 3.095454545454545 11.559545454545457  2.7272727272727275 11.191363636363636  2.7272727272727275 10.741363636363637  L 2.7272727272727275 3.5495454545454543  C 2.7272727272727275 3.099545454545454  3.095454545454546 2.7313636363636364  3.545454545454545 2.7313636363636364  L 10.737272727272728 2.7313636363636364  C 11.187272727272727 2.7313636363636364  11.555454545454548 3.0995454545454555  11.555454545454548 3.5495454545454543  Z M 13.191818181818183 19.25863636363636  C 13.191818181818183 17.90863636363636  12.091363636363639 16.80409090909091  10.737272727272725 16.80409090909091  L 3.545454545454545 16.80409090909091  C 2.1913636363636364 16.80409090909091  1.0909090909090906 17.904545454545456  1.0909090909090906 19.258636363636366  L 1.0909090909090906 26.450454545454548  C 1.0909090909090906 27.804545454545455  2.1913636363636364 28.905000000000005  3.545454545454545 28.905000000000005  L 10.737272727272728 28.905000000000005  C 12.091363636363639 28.905000000000005  13.191818181818183 27.804545454545455  13.191818181818183 26.450454545454548  L 13.191818181818183 19.25863636363636  Z M 11.555454545454548 19.25863636363636  L 11.555454545454545 26.450454545454548  C 11.555454545454545 26.900454545454547  11.187272727272727 27.268636363636364  10.737272727272725 27.268636363636364  L 3.545454545454545 27.268636363636364  C 3.095454545454545 27.268636363636364  2.7272727272727275 26.900454545454547  2.7272727272727275 26.450454545454548  L 2.7272727272727275 19.25863636363636  C 2.7272727272727275 18.808636363636364  3.095454545454546 18.440454545454546  3.545454545454545 18.440454545454546  L 10.737272727272728 18.440454545454546  C 11.187272727272727 18.440454545454546  11.555454545454548 18.808636363636364  11.555454545454548 19.25863636363636  Z M 28.909090909090914 3.5495454545454543  C 28.909090909090914 2.1954545454545458  27.808636363636364 1.095  26.454545454545457 1.095  L 19.26272727272727 1.095  C 17.90863636363636 1.095  16.80818181818182 2.1954545454545458  16.80818181818182 3.5495454545454543  L 16.80818181818182 10.741363636363637  C 16.80818181818182 12.095454545454547  17.90863636363637 13.195909090909092  19.262727272727275 13.195909090909092  L 26.454545454545457 13.195909090909092  C 27.808636363636364 13.195909090909092  28.909090909090914 12.095454545454547  28.909090909090914 10.741363636363637  L 28.909090909090914 3.5495454545454543  Z M 27.272727272727273 3.5495454545454543  L 27.272727272727273 10.741363636363637  C 27.272727272727273 11.191363636363636  26.904545454545456 11.559545454545457  26.454545454545457 11.559545454545457  L 19.26272727272727 11.559545454545457  C 18.812727272727273 11.559545454545457  18.444545454545455 11.191363636363636  18.444545454545455 10.741363636363637  L 18.444545454545455 3.5495454545454543  C 18.444545454545455 3.099545454545454  18.812727272727273 2.7313636363636364  19.26272727272727 2.7313636363636364  L 26.454545454545457 2.7313636363636364  C 26.904545454545456 2.7313636363636364  27.272727272727273 3.0995454545454555  27.272727272727273 3.5495454545454543  Z M 28.909090909090914 19.25863636363636  C 28.909090909090914 17.90863636363636  27.808636363636364 16.80409090909091  26.454545454545457 16.80409090909091  L 19.26272727272727 16.80409090909091  C 17.90863636363636 16.80409090909091  16.80818181818182 17.904545454545456  16.80818181818182 19.258636363636366  L 16.80818181818182 26.450454545454548  C 16.80818181818182 27.804545454545455  17.90863636363637 28.905000000000005  19.262727272727275 28.905000000000005  L 26.454545454545457 28.905000000000005  C 27.808636363636364 28.905000000000005  28.909090909090914 27.804545454545455  28.909090909090914 26.450454545454548  L 28.909090909090914 19.25863636363636  Z M 27.272727272727273 19.25863636363636  L 27.272727272727273 26.450454545454548  C 27.272727272727273 26.900454545454547  26.904545454545456 27.268636363636364  26.454545454545457 27.268636363636364  L 19.26272727272727 27.268636363636364  C 18.812727272727273 27.268636363636364  18.444545454545455 26.900454545454547  18.444545454545455 26.450454545454548  L 18.444545454545455 19.25863636363636  C 18.444545454545455 18.808636363636364  18.812727272727273 18.440454545454546  19.26272727272727 18.440454545454546  L 26.454545454545457 18.440454545454546  C 26.904545454545456 18.440454545454546  27.272727272727273 18.808636363636364  27.272727272727273 19.25863636363636  Z " fill-rule="evenodd" />
    </mask>
  </defs>
  <g transform="matrix(1 0 0 1 -340 -207 )">
    <path d="M 13.191818181818183 3.5495454545454543  C 13.191818181818183 2.1954545454545458  12.091363636363639 1.095  10.737272727272725 1.095  L 3.545454545454545 1.095  C 2.1913636363636364 1.095  1.0909090909090906 2.1954545454545458  1.0909090909090906 3.5495454545454543  L 1.0909090909090906 10.741363636363637  C 1.0909090909090906 12.095454545454547  2.1913636363636364 13.195909090909092  3.545454545454545 13.195909090909092  L 10.737272727272728 13.195909090909092  C 12.091363636363639 13.195909090909092  13.191818181818183 12.095454545454547  13.191818181818183 10.741363636363637  L 13.191818181818183 3.5495454545454543  Z M 11.555454545454548 3.5495454545454543  L 11.555454545454545 10.741363636363637  C 11.555454545454545 11.191363636363636  11.187272727272727 11.559545454545457  10.737272727272725 11.559545454545457  L 3.545454545454545 11.559545454545457  C 3.095454545454545 11.559545454545457  2.7272727272727275 11.191363636363636  2.7272727272727275 10.741363636363637  L 2.7272727272727275 3.5495454545454543  C 2.7272727272727275 3.099545454545454  3.095454545454546 2.7313636363636364  3.545454545454545 2.7313636363636364  L 10.737272727272728 2.7313636363636364  C 11.187272727272727 2.7313636363636364  11.555454545454548 3.0995454545454555  11.555454545454548 3.5495454545454543  Z M 13.191818181818183 19.25863636363636  C 13.191818181818183 17.90863636363636  12.091363636363639 16.80409090909091  10.737272727272725 16.80409090909091  L 3.545454545454545 16.80409090909091  C 2.1913636363636364 16.80409090909091  1.0909090909090906 17.904545454545456  1.0909090909090906 19.258636363636366  L 1.0909090909090906 26.450454545454548  C 1.0909090909090906 27.804545454545455  2.1913636363636364 28.905000000000005  3.545454545454545 28.905000000000005  L 10.737272727272728 28.905000000000005  C 12.091363636363639 28.905000000000005  13.191818181818183 27.804545454545455  13.191818181818183 26.450454545454548  L 13.191818181818183 19.25863636363636  Z M 11.555454545454548 19.25863636363636  L 11.555454545454545 26.450454545454548  C 11.555454545454545 26.900454545454547  11.187272727272727 27.268636363636364  10.737272727272725 27.268636363636364  L 3.545454545454545 27.268636363636364  C 3.095454545454545 27.268636363636364  2.7272727272727275 26.900454545454547  2.7272727272727275 26.450454545454548  L 2.7272727272727275 19.25863636363636  C 2.7272727272727275 18.808636363636364  3.095454545454546 18.440454545454546  3.545454545454545 18.440454545454546  L 10.737272727272728 18.440454545454546  C 11.187272727272727 18.440454545454546  11.555454545454548 18.808636363636364  11.555454545454548 19.25863636363636  Z M 28.909090909090914 3.5495454545454543  C 28.909090909090914 2.1954545454545458  27.808636363636364 1.095  26.454545454545457 1.095  L 19.26272727272727 1.095  C 17.90863636363636 1.095  16.80818181818182 2.1954545454545458  16.80818181818182 3.5495454545454543  L 16.80818181818182 10.741363636363637  C 16.80818181818182 12.095454545454547  17.90863636363637 13.195909090909092  19.262727272727275 13.195909090909092  L 26.454545454545457 13.195909090909092  C 27.808636363636364 13.195909090909092  28.909090909090914 12.095454545454547  28.909090909090914 10.741363636363637  L 28.909090909090914 3.5495454545454543  Z M 27.272727272727273 3.5495454545454543  L 27.272727272727273 10.741363636363637  C 27.272727272727273 11.191363636363636  26.904545454545456 11.559545454545457  26.454545454545457 11.559545454545457  L 19.26272727272727 11.559545454545457  C 18.812727272727273 11.559545454545457  18.444545454545455 11.191363636363636  18.444545454545455 10.741363636363637  L 18.444545454545455 3.5495454545454543  C 18.444545454545455 3.099545454545454  18.812727272727273 2.7313636363636364  19.26272727272727 2.7313636363636364  L 26.454545454545457 2.7313636363636364  C 26.904545454545456 2.7313636363636364  27.272727272727273 3.0995454545454555  27.272727272727273 3.5495454545454543  Z M 28.909090909090914 19.25863636363636  C 28.909090909090914 17.90863636363636  27.808636363636364 16.80409090909091  26.454545454545457 16.80409090909091  L 19.26272727272727 16.80409090909091  C 17.90863636363636 16.80409090909091  16.80818181818182 17.904545454545456  16.80818181818182 19.258636363636366  L 16.80818181818182 26.450454545454548  C 16.80818181818182 27.804545454545455  17.90863636363637 28.905000000000005  19.262727272727275 28.905000000000005  L 26.454545454545457 28.905000000000005  C 27.808636363636364 28.905000000000005  28.909090909090914 27.804545454545455  28.909090909090914 26.450454545454548  L 28.909090909090914 19.25863636363636  Z M 27.272727272727273 19.25863636363636  L 27.272727272727273 26.450454545454548  C 27.272727272727273 26.900454545454547  26.904545454545456 27.268636363636364  26.454545454545457 27.268636363636364  L 19.26272727272727 27.268636363636364  C 18.812727272727273 27.268636363636364  18.444545454545455 26.900454545454547  18.444545454545455 26.450454545454548  L 18.444545454545455 19.25863636363636  C 18.444545454545455 18.808636363636364  18.812727272727273 18.440454545454546  19.26272727272727 18.440454545454546  L 26.454545454545457 18.440454545454546  C 26.904545454545456 18.440454545454546  27.272727272727273 18.808636363636364  27.272727272727273 19.25863636363636  Z " fill-rule="nonzero" fill="rgba(0, 0, 0, 1)" stroke="none" transform="matrix(1 0 0 1 340 207 )" class="fill" />
    <path d="M 13.191818181818183 3.5495454545454543  C 13.191818181818183 2.1954545454545458  12.091363636363639 1.095  10.737272727272725 1.095  L 3.545454545454545 1.095  C 2.1913636363636364 1.095  1.0909090909090906 2.1954545454545458  1.0909090909090906 3.5495454545454543  L 1.0909090909090906 10.741363636363637  C 1.0909090909090906 12.095454545454547  2.1913636363636364 13.195909090909092  3.545454545454545 13.195909090909092  L 10.737272727272728 13.195909090909092  C 12.091363636363639 13.195909090909092  13.191818181818183 12.095454545454547  13.191818181818183 10.741363636363637  L 13.191818181818183 3.5495454545454543  Z " stroke-width="0" stroke-dasharray="0" stroke="rgba(255, 255, 255, 0)" fill="none" transform="matrix(1 0 0 1 340 207 )" class="stroke" mask="url(#Clip255)" />
    <path d="M 11.555454545454548 3.5495454545454543  L 11.555454545454545 10.741363636363637  C 11.555454545454545 11.191363636363636  11.187272727272727 11.559545454545457  10.737272727272725 11.559545454545457  L 3.545454545454545 11.559545454545457  C 3.095454545454545 11.559545454545457  2.7272727272727275 11.191363636363636  2.7272727272727275 10.741363636363637  L 2.7272727272727275 3.5495454545454543  C 2.7272727272727275 3.099545454545454  3.095454545454546 2.7313636363636364  3.545454545454545 2.7313636363636364  L 10.737272727272728 2.7313636363636364  C 11.187272727272727 2.7313636363636364  11.555454545454548 3.0995454545454555  11.555454545454548 3.5495454545454543  Z " stroke-width="0" stroke-dasharray="0" stroke="rgba(255, 255, 255, 0)" fill="none" transform="matrix(1 0 0 1 340 207 )" class="stroke" mask="url(#Clip255)" />
    <path d="M 13.191818181818183 19.25863636363636  C 13.191818181818183 17.90863636363636  12.091363636363639 16.80409090909091  10.737272727272725 16.80409090909091  L 3.545454545454545 16.80409090909091  C 2.1913636363636364 16.80409090909091  1.0909090909090906 17.904545454545456  1.0909090909090906 19.258636363636366  L 1.0909090909090906 26.450454545454548  C 1.0909090909090906 27.804545454545455  2.1913636363636364 28.905000000000005  3.545454545454545 28.905000000000005  L 10.737272727272728 28.905000000000005  C 12.091363636363639 28.905000000000005  13.191818181818183 27.804545454545455  13.191818181818183 26.450454545454548  L 13.191818181818183 19.25863636363636  Z " stroke-width="0" stroke-dasharray="0" stroke="rgba(255, 255, 255, 0)" fill="none" transform="matrix(1 0 0 1 340 207 )" class="stroke" mask="url(#Clip255)" />
    <path d="M 11.555454545454548 19.25863636363636  L 11.555454545454545 26.450454545454548  C 11.555454545454545 26.900454545454547  11.187272727272727 27.268636363636364  10.737272727272725 27.268636363636364  L 3.545454545454545 27.268636363636364  C 3.095454545454545 27.268636363636364  2.7272727272727275 26.900454545454547  2.7272727272727275 26.450454545454548  L 2.7272727272727275 19.25863636363636  C 2.7272727272727275 18.808636363636364  3.095454545454546 18.440454545454546  3.545454545454545 18.440454545454546  L 10.737272727272728 18.440454545454546  C 11.187272727272727 18.440454545454546  11.555454545454548 18.808636363636364  11.555454545454548 19.25863636363636  Z " stroke-width="0" stroke-dasharray="0" stroke="rgba(255, 255, 255, 0)" fill="none" transform="matrix(1 0 0 1 340 207 )" class="stroke" mask="url(#Clip255)" />
    <path d="M 28.909090909090914 3.5495454545454543  C 28.909090909090914 2.1954545454545458  27.808636363636364 1.095  26.454545454545457 1.095  L 19.26272727272727 1.095  C 17.90863636363636 1.095  16.80818181818182 2.1954545454545458  16.80818181818182 3.5495454545454543  L 16.80818181818182 10.741363636363637  C 16.80818181818182 12.095454545454547  17.90863636363637 13.195909090909092  19.262727272727275 13.195909090909092  L 26.454545454545457 13.195909090909092  C 27.808636363636364 13.195909090909092  28.909090909090914 12.095454545454547  28.909090909090914 10.741363636363637  L 28.909090909090914 3.5495454545454543  Z " stroke-width="0" stroke-dasharray="0" stroke="rgba(255, 255, 255, 0)" fill="none" transform="matrix(1 0 0 1 340 207 )" class="stroke" mask="url(#Clip255)" />
    <path d="M 27.272727272727273 3.5495454545454543  L 27.272727272727273 10.741363636363637  C 27.272727272727273 11.191363636363636  26.904545454545456 11.559545454545457  26.454545454545457 11.559545454545457  L 19.26272727272727 11.559545454545457  C 18.812727272727273 11.559545454545457  18.444545454545455 11.191363636363636  18.444545454545455 10.741363636363637  L 18.444545454545455 3.5495454545454543  C 18.444545454545455 3.099545454545454  18.812727272727273 2.7313636363636364  19.26272727272727 2.7313636363636364  L 26.454545454545457 2.7313636363636364  C 26.904545454545456 2.7313636363636364  27.272727272727273 3.0995454545454555  27.272727272727273 3.5495454545454543  Z " stroke-width="0" stroke-dasharray="0" stroke="rgba(255, 255, 255, 0)" fill="none" transform="matrix(1 0 0 1 340 207 )" class="stroke" mask="url(#Clip255)" />
    <path d="M 28.909090909090914 19.25863636363636  C 28.909090909090914 17.90863636363636  27.808636363636364 16.80409090909091  26.454545454545457 16.80409090909091  L 19.26272727272727 16.80409090909091  C 17.90863636363636 16.80409090909091  16.80818181818182 17.904545454545456  16.80818181818182 19.258636363636366  L 16.80818181818182 26.450454545454548  C 16.80818181818182 27.804545454545455  17.90863636363637 28.905000000000005  19.262727272727275 28.905000000000005  L 26.454545454545457 28.905000000000005  C 27.808636363636364 28.905000000000005  28.909090909090914 27.804545454545455  28.909090909090914 26.450454545454548  L 28.909090909090914 19.25863636363636  Z " stroke-width="0" stroke-dasharray="0" stroke="rgba(255, 255, 255, 0)" fill="none" transform="matrix(1 0 0 1 340 207 )" class="stroke" mask="url(#Clip255)" />
    <path d="M 27.272727272727273 19.25863636363636  L 27.272727272727273 26.450454545454548  C 27.272727272727273 26.900454545454547  26.904545454545456 27.268636363636364  26.454545454545457 27.268636363636364  L 19.26272727272727 27.268636363636364  C 18.812727272727273 27.268636363636364  18.444545454545455 26.900454545454547  18.444545454545455 26.450454545454548  L 18.444545454545455 19.25863636363636  C 18.444545454545455 18.808636363636364  18.812727272727273 18.440454545454546  19.26272727272727 18.440454545454546  L 26.454545454545457 18.440454545454546  C 26.904545454545456 18.440454545454546  27.272727272727273 18.808636363636364  27.272727272727273 19.25863636363636  Z " stroke-width="0" stroke-dasharray="0" stroke="rgba(255, 255, 255, 0)" fill="none" transform="matrix(1 0 0 1 340 207 )" class="stroke" mask="url(#Clip255)" />
  </g>
</svg>